<svg id="Layer_1" data-name="Layer 1" xmlns="http://www.w3.org/2000/svg" xmlns:xlink="http://www.w3.org/1999/xlink" width="2990.85" height="3278.3" viewBox="0 0 2990.85 3278.3"><defs><style>.cls-1{fill:none;}.cls-2{clip-path:url(#clip-path);}.cls-3{fill:url(#linear-gradient);}.cls-4{clip-path:url(#clip-path-2);}.cls-5{fill:#00aeef;}.cls-6{fill:#f69f83;}.cls-7{fill:#d1d3d4;}</style><clipPath id="clip-path" transform="translate(907.22 448)"><path class="cls-1" d="M561.58,1204.3h9.92L596.9,1156H617c3.6,0,14.28.38,14.28,10.45,0,7-8.32,9.82-11.1,10.56l-13.36,3.22L1176.42,2382.3l-558-1196.53,1.6-.39s21.25-4.17,21.25-19.08c0-17.83-18.92-18.5-25.29-18.5h-24.1l-25.27,48.07L0,0Z"/></clipPath><linearGradient id="linear-gradient" y1="2382.3" x2="1" y2="2382.3" gradientTransform="matrix(92.17, 0, 0, -92.17, 558.5, 220768.99)" gradientUnits="userSpaceOnUse"><stop offset="0" stop-color="#00aeef"/><stop offset="0.17" stop-color="#00aeef"/><stop offset="0.54" stop-color="#f69f83"/><stop offset="1" stop-color="#f69f83"/></linearGradient><clipPath id="clip-path-2" transform="translate(907.22 448)"><rect class="cls-1" width="1176.42" height="2382.3"/></clipPath></defs><title>Logo</title><g class="cls-2"><rect class="cls-3" x="-445.44" y="-136.88" width="2067.3" height="2656.06" transform="translate(461.77 804.65) rotate(-24.8)"/></g><g class="cls-4"><path class="cls-5" d="M355.46,1082.65h7v23a25,25,0,0,1-1.25,8.3,13.63,13.63,0,0,1-3.91,5.87,17,17,0,0,1-6.89,3.46,46.47,46.47,0,0,1-20.41,0,17,17,0,0,1-6.89-3.46,13.62,13.62,0,0,1-3.91-5.87,25,25,0,0,1-1.25-8.3v-23h7.43v23a16.37,16.37,0,0,0,.76,5.33,7.93,7.93,0,0,0,2.49,3.63,11,11,0,0,0,4.62,2.07,39.45,39.45,0,0,0,14.28,0,11,11,0,0,0,4.62-2.07,7.94,7.94,0,0,0,2.49-3.63,16.37,16.37,0,0,0,.77-5.33Z" transform="translate(907.22 448)"/><path class="cls-5" d="M443.72,1093.71v30.16h-6.86v-37.41a4.69,4.69,0,0,1,1-3.15,3.36,3.36,0,0,1,2.69-1.16,3.61,3.61,0,0,1,1.53.34,5.52,5.52,0,0,1,1.53,1.13l29.08,28.85v-30.16h6.86v37.75a4.66,4.66,0,0,1-1,3.18,3.27,3.27,0,0,1-2.58,1.13,4.6,4.6,0,0,1-3.29-1.53Z" transform="translate(907.22 448)"/><path class="cls-6" d="M592.8,1123.86l-10.43-11.45H567v-6.35h17.17q3.91,0,5.9-2.12a8.69,8.69,0,0,0,2-6.15q0-4-2.07-6a8.13,8.13,0,0,0-5.81-2H561.68v34h-7.14v-41.21h29.59a17.72,17.72,0,0,1,6.29,1,12.92,12.92,0,0,1,4.71,3,13.06,13.06,0,0,1,2.95,4.73,18,18,0,0,1,1,6.23,15.69,15.69,0,0,1-2.24,8.65,12.53,12.53,0,0,1-6.26,5L603,1123.86Z" transform="translate(907.22 448)"/><path class="cls-6" d="M646.42,1123.86v-41.21h36.79v7.2H653.57v26.81h29.7v7.2Zm12.41-24h22.84V1106H658.84Z" transform="translate(907.22 448)"/><path class="cls-6" d="M772.09,1123.86l-6.18-10.37h-19.5l3.4-5.84h12.64l-9.18-15.42-18.71,31.63h-8.22L750,1084.41a5.45,5.45,0,0,1,1.47-1.7,3.36,3.36,0,0,1,2-.62,3.24,3.24,0,0,1,2,.62,5.68,5.68,0,0,1,1.45,1.7l23.75,39.45Z" transform="translate(907.22 448)"/><polygon class="cls-6" points="1732.08 1571.86 1732.08 1530.65 1739.28 1530.65 1739.28 1564.66 1767 1564.66 1767 1571.86 1732.08 1571.86"/><path class="cls-7" d="M240.34,1149.39h3.9l8.31,14.1,8.29-14.1h3.68L254,1166.92a2.42,2.42,0,0,1-.65.76,1.46,1.46,0,0,1-.88.28,1.5,1.5,0,0,1-.91-.28,2.42,2.42,0,0,1-.65-.76Z" transform="translate(907.22 448)"/><rect class="cls-7" x="1199.06" y="1597.39" width="3.2" height="18.31"/><path class="cls-7" d="M340.58,1167.7l-4.63-5.09h-6.85v-2.82h7.63a3.42,3.42,0,0,0,2.62-.94,3.86,3.86,0,0,0,.88-2.73,3.5,3.5,0,0,0-.92-2.66,3.62,3.62,0,0,0-2.58-.87h-10v15.11h-3.17v-18.31h13.15a7.89,7.89,0,0,1,2.8.46,5.61,5.61,0,0,1,3.4,3.44,8,8,0,0,1,.45,2.77,7,7,0,0,1-1,3.84,5.58,5.58,0,0,1-2.78,2.23l5.52,5.57Z" transform="translate(907.22 448)"/><polygon class="cls-7" points="1284.64 1615.7 1284.64 1600.59 1277.69 1600.59 1277.69 1597.39 1294.79 1597.39 1294.79 1600.59 1287.84 1600.59 1287.84 1615.7 1284.64 1615.7"/><path class="cls-7" d="M431.25,1149.39h3.12v10.23a11.13,11.13,0,0,1-.55,3.69,6,6,0,0,1-1.74,2.61,7.54,7.54,0,0,1-3.06,1.54,20.68,20.68,0,0,1-9.07,0,7.54,7.54,0,0,1-3.06-1.54,6,6,0,0,1-1.74-2.61,11.1,11.1,0,0,1-.55-3.69v-10.23h3.3v10.23a7.3,7.3,0,0,0,.34,2.37,3.53,3.53,0,0,0,1.11,1.61,4.87,4.87,0,0,0,2.05.92,17.51,17.51,0,0,0,6.35,0,4.88,4.88,0,0,0,2.05-.92,3.53,3.53,0,0,0,1.11-1.61,7.27,7.27,0,0,0,.34-2.37Z" transform="translate(907.22 448)"/><path class="cls-7" d="M480,1167.7l-2.75-4.61h-8.66l1.51-2.6h5.62l-4.08-6.85-8.31,14.05h-3.65l10.53-17.53a2.39,2.39,0,0,1,.65-.76,1.49,1.49,0,0,1,.91-.28,1.43,1.43,0,0,1,.89.28,2.5,2.5,0,0,1,.64.76l10.55,17.53Z" transform="translate(907.22 448)"/><polygon class="cls-7" points="1418.21 1615.7 1418.21 1597.39 1421.41 1597.39 1421.41 1612.5 1433.72 1612.5 1433.72 1615.7 1418.21 1615.7"/><path class="cls-7" d="M670.95,1167.7l-4.63-5.09h-6.85v-2.82h7.63a3.42,3.42,0,0,0,2.62-.94,3.86,3.86,0,0,0,.88-2.73,3.5,3.5,0,0,0-.92-2.66,3.62,3.62,0,0,0-2.58-.87h-10v15.11h-3.17v-18.31h13.15a7.89,7.89,0,0,1,2.8.46,5.62,5.62,0,0,1,3.4,3.44,8,8,0,0,1,.45,2.77,7,7,0,0,1-1,3.84,5.58,5.58,0,0,1-2.78,2.23l5.52,5.57Z" transform="translate(907.22 448)"/><path class="cls-7" d="M702.33,1167.7v-18.31h16.35v3.2H705.5v11.91h13.2v3.2Zm5.52-10.65H718v2.69H707.84Z" transform="translate(907.22 448)"/><path class="cls-7" d="M765.72,1167.7l-2.75-4.61h-8.66l1.51-2.6h5.62l-4.08-6.85L749,1167.7H745.4l10.53-17.53a2.41,2.41,0,0,1,.66-.76,1.49,1.49,0,0,1,.91-.28,1.44,1.44,0,0,1,.89.28,2.5,2.5,0,0,1,.64.76l10.55,17.53Z" transform="translate(907.22 448)"/><polygon class="cls-7" points="1703.94 1615.7 1703.94 1597.39 1707.14 1597.39 1707.14 1612.5 1719.46 1612.5 1719.46 1615.7 1703.94 1615.7"/><rect class="cls-7" x="1747.11" y="1597.39" width="3.2" height="18.31"/><polygon class="cls-7" points="1784.72 1615.7 1784.72 1600.59 1777.77 1600.59 1777.77 1597.39 1794.87 1597.39 1794.87 1600.59 1787.91 1600.59 1787.91 1615.7 1784.72 1615.7"/><polygon class="cls-7" points="1830.63 1615.7 1830.63 1608.75 1820.91 1597.39 1825.22 1597.39 1832.34 1605.83 1839.5 1597.39 1843.58 1597.39 1833.83 1608.75 1833.83 1615.7 1830.63 1615.7"/></g></svg>